<svg width="22" height="21" viewBox="0 0 22 21" fill="none" xmlns="http://www.w3.org/2000/svg">
<path d="M15.5 0.375C16.9918 0.375 18.4226 0.967632 19.4775 2.02252C20.5324 3.07742 21.125 4.50816 21.125 6V15C21.125 16.4918 20.5324 17.9226 19.4775 18.9775C18.4226 20.0324 16.9918 20.625 15.5 20.625H6.5C5.00816 20.625 3.57742 20.0324 2.52252 18.9775C1.46763 17.9226 0.875 16.4918 0.875 15V6C0.875 4.50816 1.46763 3.07742 2.52252 2.02252C3.57742 0.967632 5.00816 0.375 6.5 0.375H15.5ZM11 6C9.84548 6 8.73512 6.44374 7.89859 7.23944C7.06206 8.03514 6.56335 9.12192 6.50563 10.275L6.5 10.5C6.5 11.39 6.76392 12.26 7.25839 13.0001C7.75285 13.7401 8.45566 14.3169 9.27792 14.6575C10.1002 14.9981 11.005 15.0872 11.8779 14.9135C12.7508 14.7399 13.5526 14.3113 14.182 13.682C14.8113 13.0526 15.2399 12.2508 15.4135 11.3779C15.5872 10.505 15.4981 9.60019 15.1575 8.77792C14.8169 7.95566 14.2401 7.25285 13.5001 6.75839C12.76 6.26392 11.89 6 11 6ZM16.0625 4.3125C15.787 4.31254 15.521 4.4137 15.3151 4.5968C15.1092 4.77991 14.9776 5.03222 14.9454 5.30587L14.9375 5.44875C14.9378 5.73549 15.0476 6.01129 15.2445 6.21979C15.4413 6.42829 15.7103 6.55376 15.9966 6.57057C16.2828 6.58737 16.5647 6.49424 16.7846 6.3102C17.0044 6.12616 17.1458 5.86511 17.1796 5.58037L17.1875 5.4375C17.1875 5.13913 17.069 4.85298 16.858 4.642C16.647 4.43103 16.3609 4.3125 16.0625 4.3125Z" fill="#1E1E1E"/>
</svg>
