<svg width="21" height="21" viewBox="0 0 21 21" fill="none" xmlns="http://www.w3.org/2000/svg">
<path d="M14.625 0C16.1168 0 17.5476 0.592632 18.6025 1.64752C19.6574 2.70242 20.25 4.13316 20.25 5.625V14.625C20.25 16.1168 19.6574 17.5476 18.6025 18.6025C17.5476 19.6574 16.1168 20.25 14.625 20.25H5.625C4.13316 20.25 2.70242 19.6574 1.64752 18.6025C0.592632 17.5476 0 16.1168 0 14.625V5.625C0 4.13316 0.592632 2.70242 1.64752 1.64752C2.70242 0.592632 4.13316 0 5.625 0H14.625ZM10.125 5.625C8.97048 5.625 7.86012 6.06874 7.02359 6.86444C6.18706 7.66014 5.68835 8.74692 5.63063 9.9L5.625 10.125C5.625 11.015 5.88892 11.885 6.38339 12.6251C6.87785 13.3651 7.58066 13.9419 8.40292 14.2825C9.22519 14.6231 10.13 14.7122 11.0029 14.5385C11.8758 14.3649 12.6776 13.9363 13.307 13.307C13.9363 12.6776 14.3649 11.8758 14.5385 11.0029C14.7122 10.13 14.6231 9.22519 14.2825 8.40292C13.9419 7.58066 13.3651 6.87785 12.6251 6.38339C11.885 5.88892 11.015 5.625 10.125 5.625ZM15.1875 3.9375C14.912 3.93754 14.646 4.0387 14.4401 4.2218C14.2342 4.40491 14.1026 4.65722 14.0704 4.93087L14.0625 5.07375C14.0628 5.36049 14.1726 5.63629 14.3695 5.84479C14.5663 6.05329 14.8353 6.17876 15.1216 6.19557C15.4078 6.21237 15.6897 6.11924 15.9096 5.9352C16.1294 5.75116 16.2708 5.49011 16.3046 5.20537L16.3125 5.0625C16.3125 4.76413 16.194 4.47798 15.983 4.267C15.772 4.05603 15.4859 3.9375 15.1875 3.9375Z" fill="white"/>
</svg>
